<svg width="140" height="140" viewBox="0 0 140 140" xmlns="http://www.w3.org/2000/svg" xmlns:xlink="http://www.w3.org/1999/xlink"><title>icon</title><defs><ellipse id="path-1" cx="70" cy="70" rx="70" ry="70"/></defs><g id="About" fill="none" fill-rule="evenodd"><g id="Desktop-HD"><g id="Mission"><g id="idea"><g id="icon"><mask id="mask-2" fill="#fff"><use xlink:href="#path-1"/></mask><use id="Oval-7" fill="#EAEBEC" xlink:href="#path-1"/><g id="Imported-Layers" mask="url(#mask-2)"><path d="M90.83 51.16c-2.396-2.397-5.932-.605-7.66 1.124-1.728 1.73-6.148 9.133-8.318 11.433-7.85 8.306-20.602 22.117-21.56 23.078-.612.61-9.75 10.707-9.274 11.187.474.478 10.562-8.656 11.183-9.278.977-.973 14.814-13.76 23.097-21.59 2.283-2.16 9.62-6.51 11.402-8.297 1.79-1.786 3.522-5.267 1.13-7.658z" id="Path" stroke="#444" stroke-width="2" stroke-linecap="round"/><path d="M84.03 57.956c-.79-.795-.518-2.358.617-3.49 1.135-1.136 2.7-1.41 3.494-.616.79.793.514 2.356-.62 3.49-1.135 1.133-2.694 1.41-3.49.616" id="Fill-2" fill="#444"/><path d="M67.772 49.207s11.745.768 18.486 6.352" id="Path-41" stroke="#444" stroke-width="2" stroke-linecap="round"/><path d="M89.17 59.9s2.937 6.477-4.19 15.638c-7.13 9.16-14.972 16.53 7.153 23.43" id="Path-42" stroke="#444" stroke-width="2" stroke-linecap="round"/></g></g></g></g></g></g></svg>