<?xml version="1.0" encoding="UTF-8" standalone="no"?>
<svg width="57px" height="64px" viewBox="0 0 57 64" version="1.1" xmlns="http://www.w3.org/2000/svg" xmlns:xlink="http://www.w3.org/1999/xlink" xmlns:sketch="http://www.bohemiancoding.com/sketch/ns">
    <!-- Generator: Sketch 3.3.2 (12043) - http://www.bohemiancoding.com/sketch -->
    <title>twitter</title>
    <desc>Created with Sketch.</desc>
    <defs></defs>
    <g id="Page-1" stroke="none" stroke-width="1" fill="none" fill-rule="evenodd" sketch:type="MSPage">
        <g id="twitter" sketch:type="MSLayerGroup" fill="#231F1F">
            <path d="M39.095,28.82 L41.186,24.978 C41.373,24.634 41.583,24.303 41.793,23.973 C41.969,23.696 42.135,23.435 42.281,23.176 C41.552,23.662 40.787,24.117 39.99,24.541 L39.435,24.836 L38.928,24.462 C37.886,23.692 36.699,23.302 35.4,23.302 C33.003,23.302 30.584,24.661 29.236,26.762 C28.029,28.645 27.886,30.817 28.833,32.88 L29.395,34.105 L28.06,34.287 C26.93,34.442 25.809,34.52 24.727,34.52 C19.348,34.521 15.259,32.644 11.691,30.444 C11.379,33.353 13.814,36.721 15.172,37.502 L17.418,38.794 L14.886,39.345 C14.385,39.454 13.881,39.44 13.47,39.365 C14.392,41.638 16.154,42.875 19.228,43.505 L22.752,44.228 L19.36,45.427 C18.755,45.641 18.371,45.744 17.999,45.816 C19.244,47.387 21.198,48.117 24.143,48.148 L26.581,48.174 L24.827,49.867 C23.138,51.497 20.963,53.313 18.12,54.343 C19.395,54.601 20.686,54.731 21.986,54.731 C28.35,54.731 34.519,51.588 38.487,46.324 C42.315,41.247 43.515,34.859 41.779,28.798 L41.67,28.418 L41.852,28.065 C42.152,27.483 42.58,26.915 42.993,26.365 C43.124,26.192 43.254,26.019 43.38,25.845 C43.106,25.982 42.854,26.119 42.647,26.268 L39.095,28.82" id="Fill-1" sketch:type="MSShapeGroup"></path>
            <path d="M0.35,28.399 L0.584,63.245 L53.066,58.849 L56.331,0.526 L0.35,28.399 L0.35,28.399 Z M44.59,27.567 C44.303,27.949 44.028,28.315 43.814,28.658 C45.556,35.205 44.206,42.059 40.084,47.527 C35.739,53.29 28.974,56.73 21.986,56.73 C19.165,56.73 16.379,56.175 13.706,55.081 L9.608,53.404 L14.029,53.158 C17.251,52.979 19.767,51.541 21.734,49.948 C18.72,49.443 16.659,47.977 15.467,45.506 L14.894,44.316 L15.274,44.249 C13.416,43.237 11.775,41.495 11.063,38.311 L10.801,37.142 L11.931,37.096 C10.225,34.824 8.922,31.38 10.154,28.478 L10.619,27.38 L11.619,28.03 C15.205,30.363 19.275,32.522 24.727,32.521 C25.319,32.521 25.926,32.495 26.54,32.444 C25.868,30.133 26.213,27.774 27.554,25.683 C29.259,23.023 32.339,21.303 35.4,21.303 C36.893,21.303 38.324,21.711 39.577,22.489 C40.886,21.753 42.095,20.922 43.175,20.014 L44.614,18.804 L44.813,20.673 C44.888,21.382 44.828,22.004 44.686,22.562 L45.776,21.052 L46.247,23.252 C46.599,24.899 45.532,26.317 44.59,27.567 L44.59,27.567 Z" id="Fill-2" sketch:type="MSShapeGroup"></path>
        </g>
    </g>
</svg>