<?xml version="1.0" encoding="UTF-8" standalone="no"?>
<svg width="60px" height="44px" viewBox="0 0 60 44" version="1.1" xmlns="http://www.w3.org/2000/svg" xmlns:xlink="http://www.w3.org/1999/xlink" xmlns:sketch="http://www.bohemiancoding.com/sketch/ns">
    <!-- Generator: Sketch 3.3.2 (12043) - http://www.bohemiancoding.com/sketch -->
    <title>diamond</title>
    <desc>Created with Sketch.</desc>
    <defs></defs>
    <g id="Page-1" stroke="none" stroke-width="1" fill="none" fill-rule="evenodd" sketch:type="MSPage">
        <path d="M49.756,0.316 L11.174,0 L0,12.626 L29.767,44.011 L59.286,12.984 L49.756,0.316 L49.756,0.316 Z M7.939,12.252 L7.956,12.252 L14.14,1.763 L16.232,1.669 L11.579,12.252 L11.538,12.252 L26.345,37.41 L21.996,32.811 L7.939,12.252 L7.939,12.252 Z M30.872,39.971 L29.77,41.195 L28.754,39.99 L27.994,12.252 L27.978,12.252 L28.628,1.625 L30.83,1.672 L31.628,12.252 L31.69,12.252 L30.872,39.971 L30.872,39.971 Z M33.431,37.267 L48.682,12.252 L48.549,12.252 L43.173,1.799 L46.419,1.923 L52.406,12.252 L52.434,12.252 L40.074,30.305 L33.431,37.267 L33.431,37.267 Z" id="diamond" fill="#231F1F" sketch:type="MSShapeGroup"></path>
    </g>
</svg>
