<?xml version="1.0" encoding="UTF-8" standalone="no"?>
<svg width="52px" height="55px" viewBox="0 0 52 55" version="1.1" xmlns="http://www.w3.org/2000/svg" xmlns:xlink="http://www.w3.org/1999/xlink" xmlns:sketch="http://www.bohemiancoding.com/sketch/ns">
    <!-- Generator: Sketch 3.3.2 (12043) - http://www.bohemiancoding.com/sketch -->
    <title>cup</title>
    <desc>Created with Sketch.</desc>
    <defs></defs>
    <g id="Page-1" stroke="none" stroke-width="1" fill="none" fill-rule="evenodd" sketch:type="MSPage">
        <g id="cup" sketch:type="MSLayerGroup" fill="#231F1F">
            <path d="M51.31,12.222 C51.145,11.375 50.827,10.454 50.173,9.604 C49.542,8.757 48.551,8.098 47.581,7.798 C46.913,7.714 44.415,8.666 43.769,8.905 C43.544,8.986 43.339,9.08 43.122,9.172 L43.88,5.664 C43.953,5.487 43.992,5.31 43.992,5.137 C43.992,2.494 35.947,0.354 26.021,0.354 C16.103,0.354 8.058,2.494 8.058,5.137 C8.058,5.31 8.097,5.487 8.169,5.664 L9.113,9.873 C9.113,9.873 6.704,9.819 5.465,9.771 C5.234,9.768 4.918,9.787 4.574,9.847 L4.311,9.895 L4.257,9.912 L4.099,9.944 L4.054,9.964 L3.868,10.023 C2.898,10.324 1.908,10.983 1.275,11.829 C0.621,12.68 0.305,12.961 0.14,13.808 C-0.17,15.523 0.086,17.023 0.443,18.418 C1.235,21.189 2.706,23.568 4.548,25.601 C6.429,27.643 7.985,28.268 10.705,29.118 C11.549,29.386 12.44,29.559 13.357,29.622 L13.787,31.608 C14.618,35.464 18.511,38.585 22.49,38.614 C22.484,41.526 22.637,44.76 21.363,47.093 C18.888,47.534 16.01,47.575 16.01,48.431 L16.158,53.19 C16.158,54.548 24.969,54.559 30.019,53.933 C36.612,53.116 36,51.872 36,50.513 L36,47.677 C36,46.821 33.095,46.643 30.614,46.201 C30.019,44.565 29.798,41.526 29.791,38.614 C33.77,38.585 37.552,35.464 38.39,31.608 L38.752,29.615 C39.637,29.544 40.457,29.377 41.269,29.118 C43.988,28.268 44.933,26.89 46.814,24.847 C48.656,22.814 50.221,19.603 51.013,16.832 C51.37,15.437 51.619,13.937 51.31,12.222 L51.31,12.222 Z M11.72,26.187 C9.714,25.406 8.731,24.937 7.399,23.228 C6.038,21.48 5.048,19.421 4.614,17.396 C4.389,16.402 5.292,14.853 5.462,14.133 C5.536,13.778 5.654,13.51 5.786,13.373 C5.898,13.239 5.991,13.171 6.208,13.105 C6.208,13.105 9.052,13.233 10.031,14.272 L12.671,26.482 C12.354,26.397 12.037,26.301 11.72,26.187 L11.72,26.187 Z M21.451,9.146 C13.763,9.146 12.096,6.258 12.096,5.052 C12.096,3.84 18.332,2.862 26.021,2.862 C33.717,2.862 39.953,3.84 39.953,5.052 C40.098,6.203 34.536,9.146 21.451,9.146 L21.451,9.146 Z M46.835,15.81 C46.399,17.835 47.681,21.221 40.223,26.187 C39.946,26.291 39.662,26.377 39.385,26.451 L42.025,14.234 C42.828,12.498 46.187,12.051 46.187,12.051 C46.405,12.117 46.497,12.186 46.61,12.318 C46.742,12.456 46.861,12.724 46.933,13.08 C47.106,13.8 47.059,14.815 46.835,15.81 L46.835,15.81 Z" id="Fill-2" sketch:type="MSShapeGroup"></path>
        </g>
    </g>
</svg>