<?xml version="1.0" encoding="UTF-8" standalone="no"?>
<svg width="88px" height="99px" viewBox="0 0 88 99" version="1.1" xmlns="http://www.w3.org/2000/svg" xmlns:xlink="http://www.w3.org/1999/xlink" xmlns:sketch="http://www.bohemiancoding.com/sketch/ns">
    <!-- Generator: Sketch 3.3.2 (12043) - http://www.bohemiancoding.com/sketch -->
    <title>lamp</title>
    <desc>Created with Sketch.</desc>
    <defs></defs>
    <g id="Page-1" stroke="none" stroke-width="1" fill="none" fill-rule="evenodd" sketch:type="MSPage">
        <g id="lamp" sketch:type="MSLayerGroup" fill="#231F1F">
            <path d="M52.508,83.133 L36.036,83.133 C34.292,83.133 32.871,84.511 32.871,86.202 C32.871,87.894 34.292,89.273 36.036,89.273 L52.508,90.273 C54.251,90.273 55.672,88.894 55.672,87.202 C55.672,85.511 54.251,83.133 52.508,83.133" id="Fill-1" sketch:type="MSShapeGroup"></path>
            <path d="M50.017,91.833 L38.517,91.833 C36.977,91.833 35.775,94.181 35.775,95.9 C35.775,97.622 36.977,98.972 38.517,98.972 L50.017,97.972 C51.556,97.972 52.759,96.622 52.759,94.9 C52.759,93.181 51.556,91.833 50.017,91.833" id="Fill-2" sketch:type="MSShapeGroup"></path>
            <path d="M62.276,55.137 C62.463,54.785 62.621,54.43 62.787,54.077 C62.854,53.938 62.923,53.8 62.987,53.66 C63.052,53.516 63.114,53.371 63.175,53.226 C64.089,51.113 64.631,48.894 64.797,46.647 C64.804,46.555 64.808,46.462 64.814,46.37 C64.842,45.896 64.856,45.422 64.851,44.947 C64.85,44.871 64.853,44.794 64.851,44.718 C64.84,44.218 64.807,43.719 64.759,43.221 C64.743,43.048 64.722,42.875 64.701,42.702 C64.66,42.365 64.61,42.029 64.552,41.693 C64.526,41.539 64.513,41.386 64.483,41.232 C62.632,31.53 58.75,23.519 45.262,23.487 C45.13,23.487 44.983,23.506 44.838,23.521 C32.661,23.58 28.683,26.157 23.05,39.263 C22.143,44.01 23.886,50.688 26.259,55.167 C27.359,57.246 28.459,59.415 29.432,61.666 C29.803,62.546 30.154,63.423 30.479,64.295 C30.529,64.432 30.581,64.567 30.63,64.704 C30.79,65.144 30.926,65.582 31.075,66.021 C31.363,66.913 31.631,67.813 31.853,68.727 C32.269,70.453 32.469,72.238 32.68,74.127 C32.733,74.626 32.79,75.126 32.851,75.623 C32.867,75.756 32.902,75.872 32.924,76 C33.072,77.005 33.411,77.88 33.936,78.58 C33.978,78.638 34.032,78.683 34.076,78.739 C34.223,78.917 34.369,79.097 34.539,79.251 C35.486,80.128 36.785,80.602 38.377,80.602 L48.396,80.603 L50.251,80.603 C53.332,80.603 55.414,78.691 55.682,75.617 L55.683,75.596 L55.684,75.595 C55.744,75.096 55.8,74.598 55.855,74.096 C56.064,72.208 56.264,70.424 56.681,68.696 C56.82,68.119 56.977,67.547 57.144,66.979 C57.984,64.365 59.027,61.739 60.289,59.053 C60.933,57.717 61.603,56.409 62.276,55.137" id="Fill-3" sketch:type="MSShapeGroup"></path>
            <path d="M36.025,83.164 L52.497,83.164 C54.244,83.164 55.662,85.539 55.662,87.231 C55.662,88.924 54.244,90.302 52.497,90.302 L36.025,89.302 C34.281,89.302 32.86,87.924 32.86,86.231 C32.86,84.539 34.281,83.164 36.025,83.164" id="Fill-4" sketch:type="MSShapeGroup"></path>
            <path d="M38.521,91.862 L50.022,91.862 C51.56,91.862 52.765,93.208 52.765,94.929 C52.765,96.652 51.56,97.999 50.022,97.999 L38.521,98.999 C36.984,98.999 35.779,97.652 35.779,95.929 C35.779,94.209 36.984,91.862 38.521,91.862" id="Fill-5" sketch:type="MSShapeGroup"></path>
            <path d="M23.757,24.78 L13.625,15.648 C12.537,14.56 12.64,12.757 13.855,11.539 C15.072,10.323 18.874,11.22 19.963,12.31 L28.097,20.441 C29.183,21.527 29.081,23.333 27.866,24.551 C26.646,25.766 24.843,25.867 23.757,24.78" id="Fill-6" sketch:type="MSShapeGroup"></path>
            <path d="M16.354,43.551 L4.853,43.551 C3.314,43.551 0.111,40.203 0.111,38.481 C0.111,36.763 1.314,35.414 2.852,35.414 L16.354,37.414 C17.891,37.414 19.095,38.763 19.095,40.481 C19.095,42.203 17.891,43.551 16.354,43.551" id="Fill-7" sketch:type="MSShapeGroup"></path>
            <path d="M43.192,16.243 L44.192,4.742 C44.192,3.205 46.54,0.001 48.261,0.001 C49.982,0.001 51.331,1.205 51.331,2.742 L49.331,16.243 C49.331,17.781 47.982,18.984 46.261,18.984 C44.54,18.984 43.192,17.779 43.192,16.243" id="Fill-8" sketch:type="MSShapeGroup"></path>
            <path d="M66.776,26.752 L76.911,18.618 C77.998,17.53 77.896,15.726 76.679,14.511 C75.463,13.294 72.658,12.189 71.57,13.277 L63.437,21.411 C62.351,22.498 61.452,25.303 62.669,26.519 C63.885,27.737 65.69,27.839 66.776,26.752" id="Fill-9" sketch:type="MSShapeGroup"></path>
            <path d="M72.18,44.521 L84.681,41.521 C86.221,41.521 87.423,40.174 87.423,38.452 C87.423,36.733 86.221,35.383 84.681,35.383 L72.18,38.383 C70.643,38.383 69.437,38.733 69.437,40.452 C69.437,42.174 70.643,44.521 72.18,44.521" id="Fill-10" sketch:type="MSShapeGroup"></path>
        </g>
    </g>
</svg>