<?xml version="1.0" encoding="UTF-8" standalone="no"?>
<svg width="50px" height="46px" viewBox="0 0 50 46" version="1.1" xmlns="http://www.w3.org/2000/svg" xmlns:xlink="http://www.w3.org/1999/xlink" xmlns:sketch="http://www.bohemiancoding.com/sketch/ns">
    <!-- Generator: Sketch 3.3.2 (12043) - http://www.bohemiancoding.com/sketch -->
    <title>safari</title>
    <desc>Created with Sketch.</desc>
    <defs></defs>
    <g id="Page-1" stroke="none" stroke-width="1" fill="none" fill-rule="evenodd" sketch:type="MSPage">
        <g id="safari" sketch:type="MSLayerGroup" fill="#231F1F">
            <path d="M29.996,0.844 C16.638,-2.288 3.519,4.927 0.698,16.964 C-2.124,28.998 6.419,41.293 19.779,44.425 C33.141,47.557 46.256,40.341 49.076,28.307 C51.898,16.271 43.358,3.977 29.996,0.844 L29.996,0.844 Z M20.427,41.663 C8.777,38.931 1.359,27.949 3.884,17.18 C6.407,6.412 17.934,-0.127 29.583,2.604 C41.231,5.334 48.655,16.317 46.131,27.085 C43.605,37.855 32.075,44.393 20.427,41.663 L20.427,41.663 Z" id="Fill-18" sketch:type="MSShapeGroup"></path>
            <path d="M28.853,5.717 C18.233,3.227 7.788,8.898 5.57,18.357 C3.352,27.819 10.187,37.542 20.809,40.033 C31.432,42.523 41.871,36.848 44.089,27.387 C46.306,17.93 39.477,8.208 28.853,5.717 L28.853,5.717 Z M18.527,25.064 L12.873,10.535 L30.563,19.704 L37.672,33.188 L18.527,25.064 L18.527,25.064 Z" id="Fill-19" sketch:type="MSShapeGroup"></path>
            <path d="M26.918,19.929 C28.56,20.839 30.104,22.915 29.427,23.962 C28.75,25.013 25.825,24.92 24.186,24.011 C22.545,23.1 21.017,20.849 21.694,19.798 C22.372,18.75 25.278,19.019 26.918,19.929" id="Fill-20" sketch:type="MSShapeGroup"></path>
        </g>
    </g>
</svg>