<?xml version="1.0" encoding="UTF-8" standalone="no"?>
<svg width="47px" height="54px" viewBox="0 0 47 54" version="1.1" xmlns="http://www.w3.org/2000/svg" xmlns:xlink="http://www.w3.org/1999/xlink" xmlns:sketch="http://www.bohemiancoding.com/sketch/ns">
    <!-- Generator: Sketch 3.3.2 (12043) - http://www.bohemiancoding.com/sketch -->
    <title>lamp</title>
    <desc>Created with Sketch.</desc>
    <defs></defs>
    <g id="Page-1" stroke="none" stroke-width="1" fill="none" fill-rule="evenodd" sketch:type="MSPage">
        <g id="lamp" sketch:type="MSLayerGroup" fill="#231F1F">
            <path d="M24.236,13.133 C23.417,13.131 22.058,13.757 21.249,13.94 C17.924,14.693 15.199,16.924 13.773,20.064 C12.34,23.218 12.455,26.76 14.086,29.78 C15.359,32.137 16.311,34.363 16.997,36.585 C17.394,37.872 17.509,39.204 17.631,40.613 L17.648,40.797 C17.79,42.43 18.895,43.446 20.53,43.446 L21.515,43.446 L26.836,43.444 C28.498,43.444 29.568,42.481 29.77,40.802 C29.802,40.537 29.831,40.273 29.861,40.006 C29.972,39.004 30.078,38.056 30.3,37.139 C30.922,34.565 32.095,32.158 33.27,29.939 C34.53,27.56 34.924,25.076 34.442,22.556 C33.46,17.404 31.398,13.15 24.236,13.133" id="Fill-21" sketch:type="MSShapeGroup"></path>
            <path d="M28.083,44.805 L19.337,44.805 C18.411,44.805 17.657,45.536 17.657,46.435 C17.657,47.333 18.411,48.065 19.337,48.065 L28.083,48.596 C29.009,48.596 29.764,47.864 29.764,46.965 C29.764,46.067 29.009,44.805 28.083,44.805" id="Fill-22" sketch:type="MSShapeGroup"></path>
            <path d="M26.761,49.424 L20.654,49.424 C19.837,49.424 19.199,50.671 19.199,51.584 C19.199,52.498 19.837,53.215 20.654,53.215 L26.761,52.684 C27.578,52.684 28.217,51.967 28.217,51.053 C28.217,50.14 27.578,49.424 26.761,49.424" id="Fill-23" sketch:type="MSShapeGroup"></path>
            <path d="M12.442,21.51 C11.96,24.031 12.886,27.577 14.146,29.955 C15.319,32.173 16.494,34.581 17.116,37.155 C17.337,38.072 17.443,39.02 17.555,40.022 C17.583,40.288 17.613,40.553 17.646,40.817 C17.848,42.497 18.917,43.46 20.58,43.46 L25.9,43.461 L26.885,43.461 C28.521,43.461 29.627,42.446 29.769,40.814 L29.784,40.63 C29.906,39.22 30.022,37.888 30.418,36.602 C31.103,34.378 32.056,32.152 33.33,29.797 C34.962,26.776 35.077,23.235 33.642,20.08 C32.216,16.94 30.023,14.178 26.698,13.426 C25.889,13.243 25.062,13.15 24.242,13.15 C17.592,13.15 15.468,14.467 12.442,21.51" id="Fill-24" sketch:type="MSShapeGroup"></path>
            <path d="M19.331,44.821 L28.078,44.821 C29.005,44.821 29.759,46.082 29.759,46.981 C29.759,47.879 29.005,48.611 28.078,48.611 L19.331,48.08 C18.405,48.08 17.651,47.349 17.651,46.45 C17.651,45.551 18.405,44.821 19.331,44.821" id="Fill-25" sketch:type="MSShapeGroup"></path>
            <path d="M20.657,49.44 L26.764,49.44 C27.58,49.44 28.22,50.154 28.22,51.068 C28.22,51.983 27.58,52.698 26.764,52.698 L20.657,53.23 C19.841,53.23 19.201,52.515 19.201,51.599 C19.201,50.686 19.841,49.44 20.657,49.44" id="Fill-26" sketch:type="MSShapeGroup"></path>
            <path d="M12.817,13.82 L7.437,8.971 C6.859,8.393 6.914,7.435 7.56,6.789 C8.206,6.144 10.224,6.619 10.803,7.198 L15.122,11.516 C15.698,12.093 15.644,13.051 14.999,13.698 C14.352,14.343 13.394,14.397 12.817,13.82" id="Fill-27" sketch:type="MSShapeGroup"></path>
            <path d="M8.886,23.787 L2.779,23.787 C1.962,23.787 0.261,22.009 0.261,21.095 C0.261,20.183 0.9,19.466 1.717,19.466 L8.886,20.528 C9.702,20.528 10.342,21.244 10.342,22.157 C10.342,23.071 9.702,23.787 8.886,23.787" id="Fill-28" sketch:type="MSShapeGroup"></path>
            <path d="M23.137,9.287 L23.668,3.18 C23.668,2.363 24.915,0.662 25.829,0.662 C26.743,0.662 27.459,1.301 27.459,2.118 L26.396,9.287 C26.396,10.104 25.681,10.742 24.767,10.742 C23.852,10.742 23.137,10.102 23.137,9.287" id="Fill-29" sketch:type="MSShapeGroup"></path>
            <path d="M35.66,14.867 L41.042,10.548 C41.618,9.97 41.564,9.012 40.918,8.367 C40.272,7.721 38.784,7.134 38.206,7.712 L33.887,12.031 C33.31,12.608 32.833,14.097 33.479,14.743 C34.125,15.39 35.084,15.444 35.66,14.867" id="Fill-30" sketch:type="MSShapeGroup"></path>
            <path d="M38.53,24.302 L45.168,22.71 C45.984,22.71 46.623,21.994 46.623,21.08 C46.623,20.166 45.984,19.45 45.168,19.45 L38.53,21.043 C37.713,21.043 37.073,21.229 37.073,22.142 C37.073,23.056 37.713,24.302 38.53,24.302" id="Fill-31" sketch:type="MSShapeGroup"></path>
        </g>
    </g>
</svg>