<?xml version="1.0" encoding="UTF-8" standalone="no"?>
<svg width="40px" height="51px" viewBox="0 0 40 51" version="1.1" xmlns="http://www.w3.org/2000/svg" xmlns:xlink="http://www.w3.org/1999/xlink" xmlns:sketch="http://www.bohemiancoding.com/sketch/ns">
    <!-- Generator: Sketch 3.3.2 (12043) - http://www.bohemiancoding.com/sketch -->
    <title>potion</title>
    <desc>Created with Sketch.</desc>
    <defs></defs>
    <g id="Page-1" stroke="none" stroke-width="1" fill="none" fill-rule="evenodd" sketch:type="MSPage">
        <g id="potion" sketch:type="MSLayerGroup" transform="translate(1.000000, 0.000000)">
            <path d="M37.767,28.136 C36.097,21.179 33.026,15.939 25.553,13.543 L24.929,9.505 C26.714,8.978 28.031,7.653 28.031,6.789 L28.093,3.5 L28.086,3.5 C28.015,2.5 26.655,1.983 24.928,1.471 C24.301,1.286 23.59,1.032 22.819,0.914 C21.741,0.748 20.542,0.606 19.28,0.606 C18.017,0.606 16.818,0.675 15.739,0.84 C14.967,0.958 14.257,1.101 13.629,1.286 C11.903,1.798 10.231,1.846 10.16,2.674 L10.028,2.608 L10.216,7.654 C10.216,8.518 11.719,9.229 13.503,9.757 L13.316,15.416 C5.844,17.811 0.292,24.576 0.292,32.835 C0.292,43.063 8.469,51.009 20.964,49.948 C33.458,48.888 39.437,35.092 37.767,28.136 L37.767,28.136 Z M23.254,45.131 C15.355,47.333 6.214,40.566 8.415,36.855 C8.415,36.855 14.053,37.668 18.629,36.905 C20.745,36.552 23.698,35.457 24.489,34.308 C25.217,33.247 26.212,30.577 28.228,30.242 C32.94,29.457 33.921,32.014 34.007,33.447 C34.335,38.9 31.281,42.893 23.254,45.131 L23.254,45.131 Z" id="Fill-12" fill="#231F1F" sketch:type="MSShapeGroup"></path>
            <path d="M37.767,28.136 C36.097,21.179 33.026,15.939 25.553,13.543 L24.929,9.505 C26.714,8.978 28.031,7.653 28.031,6.789 L28.093,3.5 L28.086,3.5 C28.015,2.5 26.655,1.983 24.928,1.471 C24.301,1.286 23.59,1.032 22.819,0.914 C21.741,0.748 20.542,0.606 19.28,0.606 C18.017,0.606 16.818,0.675 15.739,0.84 C14.967,0.958 14.257,1.101 13.629,1.286 C11.903,1.798 10.231,1.846 10.16,2.674 L10.028,2.608 L10.216,7.654 C10.216,8.518 11.719,9.229 13.503,9.757 L13.316,15.416 C5.844,17.811 0.292,24.576 0.292,32.835 C0.292,43.063 8.469,51.009 20.964,49.948 C33.458,48.888 39.437,35.092 37.767,28.136 L37.767,28.136 Z M23.254,45.131 C15.355,47.333 6.214,40.566 8.415,36.855 C8.415,36.855 14.053,37.668 18.629,36.905 C20.745,36.552 23.698,35.457 24.489,34.308 C25.217,33.247 26.212,30.577 28.228,30.242 C32.94,29.457 33.921,32.014 34.007,33.447 C34.335,38.9 31.281,42.893 23.254,45.131 L23.254,45.131 Z" id="Stroke-13" stroke="#231F1F" sketch:type="MSShapeGroup"></path>
        </g>
    </g>
</svg>