<?xml version="1.0" encoding="UTF-8" standalone="no"?>
<svg width="56px" height="64px" viewBox="0 0 56 64" version="1.1" xmlns="http://www.w3.org/2000/svg" xmlns:xlink="http://www.w3.org/1999/xlink" xmlns:sketch="http://www.bohemiancoding.com/sketch/ns">
    <!-- Generator: Sketch 3.3.2 (12043) - http://www.bohemiancoding.com/sketch -->
    <title>facebook</title>
    <desc>Created with Sketch.</desc>
    <defs></defs>
    <g id="Page-1" stroke="none" stroke-width="1" fill="none" fill-rule="evenodd" sketch:type="MSPage">
        <g id="facebook" sketch:type="MSLayerGroup" fill="#231F1F">
            <path d="M20.879,22.597 L26.861,22.332 C26.846,21.739 26.838,21.023 26.838,20.172 C26.838,18.754 27.042,16.917 27.421,14.746 L0,28.399 L0.234,63.245 L26.844,61.016 C26.918,53.167 27.036,43.879 27.199,33.357 L21.076,33.66 L20.879,22.597" id="Fill-1" sketch:type="MSShapeGroup"></path>
            <path d="M36.404,29.928 L45,29.394 L45,24.1 L36.762,24.213 L36.569,23.054 C36.491,22.11 36.402,21.23 36.402,20.439 C36.402,16.895 37.005,14.531 38.293,13.211 C39.544,11.93 41.339,11.27 43.726,11.239 C44.065,11.235 44.415,11.111 44.778,11.133 L44.778,11 L44.79,11 L44.838,5.159 C44.025,5.075 43.245,5.099 42.513,5.099 C39.406,5.099 36.822,5.81 34.834,7.147 C32.419,8.749 30.916,10.789 30.246,13.323 L30.245,13.332 C30.165,13.635 30.091,13.946 30.035,14.263 C29.566,16.723 29.331,18.706 29.331,20.17 C29.331,21.686 29.355,22.783 29.403,23.428 L29.499,24.709 L23.415,24.979 L23.522,31.044 L29.732,30.737 L29.711,32.067 C29.544,42.82 29.42,52.329 29.343,60.358 L36.518,60.047 C36.535,57.901 36.544,54.823 36.544,50.813 C36.544,46.024 36.442,39.4 36.24,31.126 L36.404,29.928" id="Fill-2" sketch:type="MSShapeGroup"></path>
            <path d="M47.328,4.834 L47.246,14.057 L45.848,13.871 C43.077,13.501 41.116,13.864 40.052,14.953 C39.502,15.516 38.846,16.925 38.846,20.439 C38.846,20.831 38.804,21.249 38.825,21.688 L47,21.573 L47,31.732 L38.707,32.263 C38.891,40.002 39.01,46.237 39.01,50.813 C39.01,54.796 39.014,57.847 38.997,59.997 L52.71,58.849 L55.978,0.526 L47.328,4.834" id="Fill-3" sketch:type="MSShapeGroup"></path>
        </g>
    </g>
</svg>