<?xml version="1.0" encoding="UTF-8" standalone="no"?>
<svg width="38px" height="50px" viewBox="0 0 38 50" version="1.1" xmlns="http://www.w3.org/2000/svg" xmlns:xlink="http://www.w3.org/1999/xlink" xmlns:sketch="http://www.bohemiancoding.com/sketch/ns">
    <!-- Generator: Sketch 3.3.2 (12043) - http://www.bohemiancoding.com/sketch -->
    <title>Imported Layers</title>
    <desc>Created with Sketch.</desc>
    <defs></defs>
    <g id="Page-1" stroke="none" stroke-width="1" fill="none" fill-rule="evenodd" sketch:type="MSPage">
        <path d="M37.475,27.3433521 C35.805,20.3863521 32.734,15.1453521 25.261,12.7503521 L24.637,8.71235208 C26.422,8.18535208 27.739,7.61035208 27.739,6.74635208 L27.801,4.20735208 L27.794,4.20735208 C27.723,3.20735208 26.363,1.94035208 24.636,1.42835208 C24.009,1.24335208 23.298,0.614352082 22.527,0.496352082 C21.449,0.330352082 20.25,0.00135208221 18.988,0.00135208221 C17.725,0.00135208221 16.526,-0.0236479178 15.447,0.141352082 C14.675,0.259352082 13.965,0.355352082 13.337,0.540352082 C11.611,1.05235208 9.939,1.07735208 9.868,1.90535208 L9.736,1.82735208 L9.924,6.86735208 C9.924,7.73035208 11.427,8.43935208 13.211,8.96735208 L13.024,14.6243521 C5.552,17.0193521 0,23.7833521 0,32.0433521 C0,42.2713521 8.177,50.2173521 20.672,49.1563521 C33.166,48.0953521 39.145,34.2993521 37.475,27.3433521 L37.475,27.3433521 Z M22.962,44.3383521 C15.063,46.5403521 5.922,39.7733521 8.123,36.0623521 C8.123,36.0623521 13.761,36.8753521 18.337,36.1123521 C20.453,35.7593521 23.406,34.6643521 24.197,33.5153521 C24.925,32.4543521 25.92,29.7843521 27.936,29.4493521 C32.648,28.6643521 33.629,31.2213521 33.715,32.6543521 C34.043,38.1073521 30.989,42.1003521 22.962,44.3383521 L22.962,44.3383521 Z" id="Imported-Layers" fill="#231F1F" sketch:type="MSShapeGroup"></path>
    </g>
</svg>