<?xml version="1.0" encoding="UTF-8" standalone="no"?>
<svg width="87px" height="105px" viewBox="0 0 87 105" version="1.1" xmlns="http://www.w3.org/2000/svg" xmlns:xlink="http://www.w3.org/1999/xlink" xmlns:sketch="http://www.bohemiancoding.com/sketch/ns">
    <!-- Generator: Sketch 3.3.2 (12043) - http://www.bohemiancoding.com/sketch -->
    <title>pinata</title>
    <desc>Created with Sketch.</desc>
    <defs></defs>
    <g id="Page-1" stroke="none" stroke-width="1" fill="none" fill-rule="evenodd" sketch:type="MSPage">
        <g id="pinata" sketch:type="MSLayerGroup" transform="translate(0.000000, -1.000000)" fill="#231F1F">
            <path d="M32.344,29.429 C31.975,25.221 30.287,22.344 30.183,22.168 C30.032,21.916 29.759,21.764 29.462,21.775 C29.167,21.785 28.902,21.952 28.768,22.212 L23.124,33.106 L32.344,29.429" id="Fill-1" sketch:type="MSShapeGroup"></path>
            <path d="M34.246,91.411 L31.643,97.54 L35.474,98.458 L36.699,92.483 L34.246,91.411" id="Fill-2" sketch:type="MSShapeGroup"></path>
            <path d="M47.423,98.229 L45.275,99.916 L40.07,96.162 L43.593,92.638 L47.423,98.229" id="Fill-3" sketch:type="MSShapeGroup"></path>
            <path d="M47.423,86.05 L47.423,92.024 L50.793,90.646 L49.108,86.05 L47.423,86.05" id="Fill-4" sketch:type="MSShapeGroup"></path>
            <path d="M86.479,79.387 C86.444,79.359 82.781,76.508 78.109,72.771 C77.254,72.088 76.204,71.124 74.991,70.01 C72.37,67.604 69.055,64.569 65.361,62.187 L79.695,56.158 C80.831,55.684 81.364,54.375 80.887,53.239 C80.411,52.106 79.103,51.572 77.968,52.051 L72.271,54.446 L80.855,46.485 C81.759,45.65 81.811,44.237 80.975,43.335 C80.137,42.432 78.725,42.379 77.821,43.217 L68.739,51.643 L72.222,44.502 C72.761,43.394 72.301,42.06 71.195,41.52 C70.086,40.98 68.753,41.44 68.212,42.546 L59.983,59.416 C58.093,58.709 56.149,58.282 54.185,58.282 C53.565,58.282 53.186,58.326 52.59,58.41 C51.966,58.498 51,58.583 51,58.667 L51,2.38 C51,1.596 50.282,0.961 49.5,0.961 C48.716,0.961 48,1.596 48,2.38 L48,59.067 C43,59.718 39.652,60.235 37.482,60.551 C37.168,59.858 36.849,59.121 36.53,58.363 L41.619,56.859 C42.37,56.639 42.801,55.852 42.576,55.099 C42.354,54.346 41.565,53.915 40.815,54.139 L35.454,55.722 C35.284,55.29 35.114,54.854 34.946,54.416 L40.367,52.816 C41.117,52.594 41.547,51.805 41.325,51.053 C41.103,50.301 40.313,49.871 39.561,50.094 L33.941,51.752 C33.791,51.346 33.644,50.943 33.498,50.542 L39.278,48.835 C40.028,48.613 40.458,47.825 40.236,47.073 C40.015,46.321 39.226,45.891 38.473,46.112 L32.542,47.865 C32.405,47.475 32.272,47.093 32.142,46.719 L38.349,44.886 C39.1,44.663 39.529,43.876 39.308,43.124 C39.086,42.371 38.296,41.94 37.544,42.164 L31.225,44.031 C30.798,42.757 30.455,41.706 30.234,41.009 C44.529,39.441 44.797,27.983 44.797,27.867 C44.801,27.596 44.649,27.343 44.426,27.187 C44.204,27.036 43.908,27.004 43.657,27.103 L0.944,44.134 C0.574,44.28 0.365,44.675 0.45,45.063 L1.637,50.407 C4.237,50.226 9.359,49.388 10.48,45.578 C10.665,44.953 11.363,44.57 11.991,44.756 C12.634,44.945 13.003,45.623 12.813,46.267 C12.028,48.931 9.964,50.837 6.681,51.933 C5.059,52.474 3.417,52.71 2.17,52.813 L2.61,54.793 C2.698,55.188 3.063,55.459 3.468,55.425 L12.269,54.692 L11.026,76.181 L0.501,99.563 C0.387,99.813 0.409,100.252 0.559,100.481 C0.708,100.714 0.965,101 1.239,101 L5.158,101 C5.373,101 5.579,100.766 5.73,100.615 L17.092,89.219 L14.429,104.962 C14.39,105.198 14.454,105.484 14.61,105.667 C14.763,105.848 14.989,106 15.228,106 L20.363,106 C20.651,106 20.917,105.784 21.063,105.536 L31.369,88.049 L50.342,82.837 L65.419,97.243 C65.633,97.449 65.943,97.517 66.227,97.427 L73.19,95.424 C73.414,95.351 73.796,94.888 73.889,94.671 C73.98,94.454 74.174,93.811 74.071,93.6 C71.94,89.186 69.758,82.911 68.431,79.913 C71.807,81.161 78.337,84.033 82.862,85.716 C83.232,85.852 83.649,85.702 83.847,85.359 L86.686,80.43 C86.888,80.081 86.8,79.636 86.479,79.387 L86.479,79.387 Z M20.161,45.091 C21.469,45.091 22.527,46.149 22.527,47.455 C22.527,48.76 21.469,49.819 20.161,49.819 C18.855,49.819 17.797,48.759 17.797,47.455 C17.797,46.149 18.855,45.091 20.161,45.091 L20.161,45.091 Z M38.253,66.905 L35.894,71.977 C35.683,72.432 35.167,72.663 34.685,72.519 L32.194,71.771 L33.762,73.632 C34.117,74.052 34.071,74.681 33.656,75.046 L28.81,79.304 C28.429,79.638 27.857,79.638 27.475,79.305 L24.858,77.023 L25.464,79.957 C25.574,80.485 25.248,81.01 24.724,81.144 L17.221,83.072 C17.139,83.093 17.054,83.102 16.969,83.102 C16.772,83.102 16.581,83.044 16.413,82.936 C16.175,82.778 16.014,82.529 15.968,82.248 L15.044,76.469 C14.956,75.916 15.333,75.398 15.886,75.308 C16.44,75.22 16.958,75.596 17.048,76.149 L17.796,80.829 L23.281,79.42 L22.263,74.488 C22.174,74.062 22.368,73.626 22.743,73.406 C23.118,73.188 23.593,73.234 23.92,73.519 L28.137,77.195 L31.571,74.177 L28.452,70.477 C28.163,70.135 28.134,69.643 28.38,69.267 C28.626,68.891 29.09,68.724 29.518,68.853 L34.424,70.323 L35.963,67.013 L31.744,65.287 C31.226,65.073 30.977,64.484 31.188,63.965 C31.4,63.446 31.993,63.197 32.511,63.411 L37.715,65.539 C37.97,65.644 38.172,65.851 38.274,66.109 C38.378,66.367 38.37,66.654 38.253,66.905 L38.253,66.905 Z M58,70.703 C58,70.981 57.988,71.249 57.782,71.442 C57.578,71.633 57.357,71.732 57.076,71.714 L54.365,71.535 L55.68,72.481 C56.12,72.798 56.237,73.404 55.939,73.856 L52.506,79.085 C52.358,79.31 52.126,79.466 51.859,79.52 C51.792,79.533 51.729,79.54 51.662,79.54 C51.46,79.54 51.26,79.477 51.092,79.365 L46.73,76.39 C46.266,76.076 46.149,75.445 46.464,74.981 C46.78,74.521 47.409,74.401 47.874,74.715 L51.384,77.107 L53.719,73.553 L50.357,71.115 C49.994,70.849 49.847,70.374 50.001,69.95 C50.153,69.524 50.481,69.255 50.93,69.283 L56,69.619 L56,65.482 L50.266,66.131 C49.712,66.193 49.254,65.792 49.194,65.236 C49.134,64.679 49.556,64.178 50.11,64.117 L57.072,63.344 C57.357,63.31 57.543,63.402 57.761,63.595 C57.975,63.787 58,64.063 58,64.351 L58,70.703 L58,70.703 Z" id="Fill-5" sketch:type="MSShapeGroup"></path>
        </g>
    </g>
</svg>