<?xml version="1.0" encoding="UTF-8" standalone="no"?>
<svg width="42px" height="51px" viewBox="0 0 42 51" version="1.1" xmlns="http://www.w3.org/2000/svg" xmlns:xlink="http://www.w3.org/1999/xlink" xmlns:sketch="http://www.bohemiancoding.com/sketch/ns">
    <!-- Generator: Sketch 3.3.2 (12043) - http://www.bohemiancoding.com/sketch -->
    <title>book</title>
    <desc>Created with Sketch.</desc>
    <defs></defs>
    <g id="Page-1" stroke="none" stroke-width="1" fill="none" fill-rule="evenodd" sketch:type="MSPage">
        <g id="book" sketch:type="MSLayerGroup" fill="#231F1F">
            <path d="M33.327,1.354 L31.956,0.77 L0.85,6.318 L2.008,6.882 L33.327,1.354" id="Fill-14" sketch:type="MSShapeGroup"></path>
            <path d="M4.522,7.887 L24.974,4.847 C34.451,3.791 39.273,4.152 39.273,4.152 L34.559,2.306 L2.684,7.259 L4.522,7.887" id="Fill-15" sketch:type="MSShapeGroup"></path>
            <path d="M0.569,6.958 L1.783,48.223 C2.857,49.556 5.239,50.465 5.239,50.465 L4.41,8.602 C4.41,8.602 2.001,8.008 0.569,6.958" id="Fill-16" sketch:type="MSShapeGroup"></path>
            <path d="M23.214,6.066 C14.766,7.21 7.312,8.393 6.044,8.593 L6.862,50.75 C6.862,50.75 27.373,45.455 38.675,44.65 L41.318,5.471 C40.013,5.554 31.448,4.955 23.214,6.066" id="Fill-17" sketch:type="MSShapeGroup"></path>
        </g>
    </g>
</svg>