<svg version="1.1" id="Calque_1" xmlns="http://www.w3.org/2000/svg" xmlns:xlink="http://www.w3.org/1999/xlink" x="0px" y="0px" width="565px" height="200px" viewBox="0 0 565 200" enable-background="new 0 0 565 200" xml:space="preserve">
      <polygon fill="#201D1E" points="62.439,156.67 55.507,63.836 43.954,72.308 48.345,155.821 "></polygon>
      <polyline fill="#201D1E" points="49.065,76.833 30.344,98.353 32.208,140.093 49.065,145.036 "></polyline>
      <path fill="#201D1E" d="M129.349,74.234L55.307,63.99l6.932,92.68l73.938-16.944L129.349,74.234z M69.308,137.103l-5.469-64.256
        l58.419,7.283l5.387,49.397L69.308,137.103z"></path>
      <path fill="#FFFFFF" d="M69.308,137.103l-5.469-64.256  l58.419,7.283l5.387,49.397L69.308,137.103z"></path>
      <polyline fill="#201D1E" points="80.562,159.101 92.656,143.288 113.245,141.343 120.176,159.101 "></polyline>
      <polygon fill="#45C2C5" points="501.249,82.353 86.885,99.171 85.657,85.222 522.75,28.5 "></polygon>
      <polygon fill="#ffcc33" points="506.641,111.62 88.053,111.999 86.885,98.897 533.75,65.5 "></polygon>
      <polygon fill="#f79838" points="491.75,163.5 89.109,125.044 87.925,111.165 532.953,106.693 "></polygon>
      <g class="epicgamejam">
        <path fill="#201D1E" d="M111.02,90.661l0.412,5.762l-8.095,0.251l0.48,6.702l7.239-0.723l0.58,5.524l-6.477,0.463l0.371,5.19
          l8.479-0.606l0.416,5.803l-14.155,0.808c-0.125-3.839-0.325-7.7-0.603-11.582c-0.384-5.381-0.916-10.8-1.593-16.256
          C101.142,91.655,105.457,91.209,111.02,90.661"></path>
        <path fill="#201D1E" d="M117.054,121.439c-0.188-3.859-0.425-7.805-0.714-11.833c-0.442-6.183-1.003-12.578-1.682-19.187
          c2.48-0.531,4.68-0.865,6.6-1.002c3.018-0.216,5.32,0.061,6.907,0.832c2.457,1.194,3.836,3.9,4.138,8.12l0.052,0.725
          c0.184,4.642-0.652,7.679-2.507,9.115c-1.856,1.436-4.21,2.3-7.061,2.592c0.018,0.456,0.045,0.925,0.079,1.408
          c0.174,2.433,0.503,5.304,0.991,8.611L117.054,121.439z M120.825,95.103l0.922,10.736c2.716-0.341,4.242-1.429,4.582-3.265
          c0.162-0.836,0.212-1.686,0.15-2.551c-0.072-1.012-0.294-2.041-0.663-3.09c-0.552-1.535-1.706-2.241-3.465-2.115
          C121.882,94.851,121.373,94.947,120.825,95.103"></path>
        <path fill="#201D1E" d="M143.597,122.111l-6.271,1.034c-0.886-12.403-1.921-24.031-3.105-34.886l7.181-1.125
          C142.036,98.623,142.768,110.281,143.597,122.111"></path>
        <path fill="#201D1E" d="M164.687,98.757l-5.608,0.428l-0.049-0.684c-0.282-3.963-1.531-5.863-3.757-5.705
          c-2.378,0.171-3.305,3.916-2.781,11.233c0.589,8.247,2.132,12.281,4.628,12.101h0.025c2.484-0.195,3.584-2.309,3.295-6.34
          l-0.177-2.504l6.269-0.448l0.136,1.898c0.601,8.396-2.532,13.037-9.388,13.917c-0.2,0.033-0.402,0.054-0.605,0.069
          c-6.492,0.465-10.184-5.543-11.076-18.022c-0.873-12.209,2.028-18.552,8.706-19.029c6.276-0.45,9.714,3.406,10.298,11.568
          C164.637,97.728,164.665,98.235,164.687,98.757"></path>
        <path fill="#201D1E" d="M200.954,96.696l-6.446,0.518c-0.44-4.805-1.833-7.247-4.18-7.327l-0.512,0.037
          c-2.085,0.149-3.673,1.643-4.762,4.481c-1.094,2.84-1.458,6.779-1.098,11.818l0.09,1.25c0.517,5.637,2.698,8.319,6.544,8.043
          c2.651-0.189,3.824-2.444,3.515-6.763c-0.031-0.435-0.073-0.879-0.126-1.332l-5.647,0.488l-0.173-6.413l14.537-0.812l0.498,6.962
          l-2.895,0.265c0.706,9.889-2.88,15.114-10.761,15.678c-7.293,0.521-11.355-5.034-12.187-16.665
          c-0.069-0.966-0.112-1.982-0.131-3.046c-0.315-13.707,3.525-21.131,11.516-22.274c0.396-0.047,0.773-0.084,1.134-0.109
          c6.688-0.479,10.354,3.791,10.998,12.807C200.923,95.061,200.952,95.858,200.954,96.696"></path>
        <path fill="#201D1E" d="M202.981,125.645c2.629-17.962,4.704-33.18,6.226-45.654l11.636-1.017
          c3.772,12.592,8.085,26.935,12.941,43.031l-7.836,2.185l-3.357-11.593l-9.66,0.691l-1.702,12.891L202.981,125.645z
           M221.719,103.886c-1.398-4.395-3.542-9.621-6.429-15.681c-1.511,5.374-2.717,10.913-3.619,16.619L221.719,103.886z"></path>
        <path fill="#201D1E" d="M246.179,75.819l10.405,34.535l3.467-32.939l15.463-0.936c0.253,7.361,0.649,14.779,1.183,22.256
          c0.596,8.334,1.37,16.759,2.317,25.272l-9.809,1.383c-0.644-8.989-1.531-19.971-2.663-32.944l-3.394,30.176l-10.452,1.463
          l-9.073-31.635l2.19,32.535l-8.223,1.168c-0.376-7.441-0.823-14.822-1.347-22.141c-0.653-9.125-1.422-18.129-2.307-27.011
          L246.179,75.819z"></path>
        <path fill="#201D1E" d="M306.588,71.34l0.783,10.948l-15.381,0.477l0.912,12.734l13.755-1.373l1.104,10.496l-12.31,0.881
          l0.703,9.861l16.115-1.152l0.789,11.026l-26.897,1.535c-0.235-7.293-0.616-14.629-1.143-22.006
          c-0.731-10.225-1.741-20.521-3.028-30.887C287.822,73.23,296.022,72.382,306.588,71.34"></path>
        <path fill="#201D1E" d="M324.114,106.088l12.169-1.712c0.032,0.902,0.079,1.755,0.136,2.562c0.496,6.913,1.631,11.038,3.41,12.375
          c1.091,0.888,2.225,1.288,3.403,1.204c0.932-0.067,1.872-0.412,2.826-1.043c2.08-1.364,2.864-5.673,2.345-12.926l-0.078-1.07
          c-0.688-7.896-1.945-20.705-3.774-38.43l13.194-1.738c0.84,8.696,1.499,16.377,1.976,23.041
          c1.187,16.587,1.244,26.972,0.173,31.162c-1.509,5.935-4.414,9.758-8.716,11.467c-2.577,1.025-5.103,1.627-7.582,1.804
          c-1.673,0.119-3.334,0.035-4.972-0.252c-4.065-0.643-7.148-2.441-9.24-5.39c-2.101-2.951-3.441-6.135-4.026-9.551
          c-0.487-2.865-0.854-6.047-1.104-9.551L324.114,106.088z"></path>
        <path fill="#201D1E" d="M368.066,135.101c4.143-28.317,7.414-52.308,9.817-71.971l18.342-1.607
          c5.947,19.852,12.748,42.467,20.405,67.84l-12.353,3.445l-5.295-18.276l-15.231,1.088l-2.679,20.324L368.066,135.101z
           M397.605,100.8c-2.202-6.931-5.582-15.171-10.134-24.723c-2.382,8.475-4.282,17.205-5.706,26.2L397.605,100.8z"></path>
        <path fill="#201D1E" d="M435.219,58.299l15.954,52.946l5.315-50.499l23.705-1.434c0.387,11.285,0.991,22.656,1.813,34.119
          c0.912,12.778,2.1,25.693,3.554,38.746l-15.043,2.119c-0.985-13.781-2.345-30.617-4.079-50.506l-5.202,46.262l-16.025,2.242
          L431.3,83.796l3.359,49.881l-12.609,1.788c-0.576-11.409-1.262-22.726-2.064-33.943c-1.001-13.99-2.179-27.793-3.534-41.41
          L435.219,58.299z"></path>
      </g>
      </svg>