<?xml version="1.0" encoding="UTF-8" standalone="no"?>
<svg width="211px" height="239px" viewBox="0 0 211 239" version="1.1" xmlns="http://www.w3.org/2000/svg" xmlns:xlink="http://www.w3.org/1999/xlink" xmlns:sketch="http://www.bohemiancoding.com/sketch/ns">
    <!-- Generator: Sketch 3.3.2 (12043) - http://www.bohemiancoding.com/sketch -->
    <title>Imported Layers</title>
    <desc>Created with Sketch.</desc>
    <defs></defs>
    <g id="Page-1" stroke="none" stroke-width="1" fill="none" fill-rule="evenodd" sketch:type="MSPage">
        <g id="Imported-Layers" sketch:type="MSLayerGroup">
            <path d="M4.19,60.226 C3.912,56.601 12.273,45.909 17.935,39.762 C12.913,28.924 36.78,3.823 44.573,1.631 C57.242,-1.931 96.437,2.819 99.604,12.321 C99.7,12.61 99.773,12.907 99.826,13.211 C107.652,13.534 119.777,15.98 122.172,16.28 C125.339,16.676 128.11,22.219 128.11,22.219 L137.216,22.219 C140.384,22.219 144.343,30.137 149.489,34.887 C154.636,39.639 185.121,87.149 185.121,87.149 C185.121,87.149 190.268,85.96 195.415,89.524 C200.561,93.086 214.418,126.739 209.668,131.094 C204.917,135.45 195.019,125.948 189.477,129.907 C183.934,133.866 188.685,140.2 181.162,142.18 C157.012,149.305 143.551,113.278 139.987,112.881 C136.424,112.487 130.485,114.862 130.485,117.237 C130.485,119.612 132.069,133.469 132.069,133.469 C132.069,133.469 139.592,132.678 146.322,135.45 C153.053,138.221 178.391,182.166 177.599,184.938 C176.807,187.709 174.035,191.668 174.035,191.668 L183.934,216.216 C183.934,216.216 141.571,228.487 140.779,226.905 C139.987,225.321 134.049,201.17 132.069,201.17 C130.09,201.17 128.506,205.921 128.506,205.921 L136.424,226.112 L92.874,238.782 C92.874,238.782 94.458,231.655 94.458,227.696 C94.458,223.737 91.687,210.673 91.687,210.673 C91.687,210.673 87.232,215.522 86.837,213.542 C86.44,211.564 79.413,183.354 77.434,171.081 C75.454,158.807 85.748,148.514 85.748,148.514 C85.748,148.514 80.997,138.221 78.226,137.032 C75.454,135.844 69.12,138.221 69.12,138.221 C69.12,138.221 75.059,163.954 70.308,168.706 C65.557,173.456 55.263,169.497 51.699,171.477 C48.137,173.456 51.699,182.563 46.553,187.313 C41.406,192.065 33.092,188.5 23.59,184.938 C14.088,181.373 6.962,162.372 7.357,152.077 C7.754,141.784 16.859,142.18 16.859,142.18 C16.859,142.18 5.378,115.258 5.378,108.528 C5.378,101.797 7.754,102.985 2.211,91.108 C-3.332,79.229 4.586,65.374 4.19,60.226" id="Fill-1" fill="#231F1F" sketch:type="MSShapeGroup"></path>
            <path d="M100.394,13.51 C95.116,35.286 76.826,45.369 65.292,47.163 C35.598,51.781 19.102,45.909 17.717,39.903 C24.051,43.534 42.065,51.781 63.972,44.788 C88.94,36.817 94.852,23.276 100.394,13.51" id="Fill-2" fill="#FFFFFF" sketch:type="MSShapeGroup"></path>
            <path d="M146.914,32.645 L145.001,30.005 L136.225,44.194 C136.225,44.194 136.224,47.294 137.148,46.7 C138.073,46.106 146.914,32.843 146.914,32.843" id="Fill-3" fill="#FFFFFF" sketch:type="MSShapeGroup"></path>
            <path d="M148.763,34.098 C148.763,34.098 139.852,47.426 138.336,48.086 C136.818,48.747 138.27,50.659 138.27,50.659 C138.27,50.659 150.742,37.001 150.676,36.208 C150.609,35.417 148.763,34.098 148.763,34.098" id="Fill-4" fill="#FFFFFF" sketch:type="MSShapeGroup"></path>
            <path d="M2.013,90.051 C2.013,90.051 2.41,91.635 2.674,91.965 C2.936,92.295 13.097,92.887 15.407,89.852 C15.407,88.403 14.484,88.071 14.484,88.071 C14.484,88.071 3.069,90.776 2.013,90.051" id="Fill-5" fill="#FFFFFF" sketch:type="MSShapeGroup"></path>
            <path d="M4.257,95.528 C3.53,95.989 4.916,97.969 5.312,97.969 C5.708,97.969 17.717,95.594 18.574,94.868 C19.433,94.141 18.245,93.417 18.245,93.417 C18.245,93.417 6.435,96.254 4.257,95.528" id="Fill-6" fill="#FFFFFF" sketch:type="MSShapeGroup"></path>
            <path d="M184.988,87.543 C184.988,87.543 189.343,95.331 189.343,97.311 C180.667,108.428 147.904,114.465 145.001,113.278 C142.099,112.09 141.174,113.409 141.174,113.409 C141.174,113.409 141.307,115.258 142.626,115.522 C143.945,115.786 161.63,120.538 173.507,114.731 C185.384,108.922 194.885,102.061 191.85,95.461 C188.815,88.864 184.988,87.543 184.988,87.543" id="Fill-7" fill="#FFFFFF" sketch:type="MSShapeGroup"></path>
            <path d="M15.87,142.18 C15.87,142.18 16.067,155.641 19.433,157.223 C22.798,158.807 35.468,169.893 69.317,140.397 L69.12,137.891 C69.12,137.891 37.051,160.391 22.204,153.463 C21.412,149.702 15.87,142.18 15.87,142.18" id="Fill-8" fill="#FFFFFF" sketch:type="MSShapeGroup"></path>
            <path d="M85.615,149.438 L92.477,158.545 C97.227,159.733 132.464,150.1 137.61,142.707 L131.805,133.471 L132.729,142.047 C131.276,143.368 94.589,155.641 94.589,155.641 C94.589,155.641 87.33,149.571 85.615,149.438" id="Fill-9" fill="#FFFFFF" sketch:type="MSShapeGroup"></path>
            <path d="M92.148,212.456 L91.818,210.806 C91.818,210.806 96.108,210.542 96.833,208.892 C98.052,206.12 96.128,196.118 104.752,195.167 C116.102,193.915 118.741,202.954 120.588,204.142 C122.435,205.329 128.639,204.272 128.969,204.272 C129.298,204.272 128.309,206.384 128.309,206.384 C128.309,206.384 120.522,207.704 119.07,206.847 C117.618,205.987 111.68,196.42 105.214,197.739 C98.748,199.059 100.331,211.134 98.682,211.2 C97.031,211.269 92.148,212.456 92.148,212.456" id="Fill-10" fill="#FFFFFF" sketch:type="MSShapeGroup"></path>
            <path d="M133.058,202.292 L149.225,196.946 C149.225,196.946 149.092,186.456 152.523,185.729 C155.955,185.002 166.908,190.745 166.71,190.745 C166.512,190.745 175.155,189.424 175.749,188.831 C176.343,188.237 176.607,186.588 176.607,186.588 C176.607,186.588 168.954,188.7 167.898,188.831 C166.841,188.961 159.187,182.1 151.863,183.684 C145.814,184.993 148.035,194.901 146.519,195.561 C145.001,196.221 132.003,200.114 131.409,200.971 C133.058,201.7 133.058,202.292 133.058,202.292" id="Fill-11" fill="#FFFFFF" sketch:type="MSShapeGroup"></path>
            <path d="M135.83,226.015 C135.83,226.015 122.567,214.532 121.775,214.433 C120.983,214.335 97.922,220.272 97.031,221.362 C96.141,222.45 92.974,238.782 92.974,238.782 C92.974,238.782 97.229,225.321 98.912,224.231 C100.595,223.144 119.301,217.007 120.885,217.501 C122.469,217.997 135.83,226.015 135.83,226.015" id="Fill-12" fill="#FFFFFF" sketch:type="MSShapeGroup"></path>
            <path d="M141.241,227.038 C141.241,227.038 144.013,209.552 145.003,208.892 C145.992,208.231 171.923,204.339 172.65,204.339 C173.377,204.339 184,215.952 184,215.952 C184,215.952 172.848,207.044 171.858,206.847 C170.868,206.647 147.905,211.269 147.311,211.663 C146.718,212.06 141.241,227.038 141.241,227.038" id="Fill-13" fill="#FFFFFF" sketch:type="MSShapeGroup"></path>
            <path d="M128.11,22.219 C130.154,28.883 144.606,77.25 139.46,112.221 C151.469,106.415 145.266,81.209 141.307,64.317 C137.348,47.424 131.54,24.331 128.11,22.219" id="Fill-14" fill="#FFFFFF" sketch:type="MSShapeGroup"></path>
            <path d="M4.389,62.008 C4.389,62.008 2.805,63.987 3.201,65.571 C3.597,67.155 33.513,127.356 51.106,134.856 C61.399,139.243 63.114,138.881 69.317,138.022 C56.847,137.065 47.443,130.5 36.754,116.049 C32.501,110.301 4.784,64.977 4.389,62.008" id="Fill-15" fill="#FFFFFF" sketch:type="MSShapeGroup"></path>
            <path d="M131.698,201.145 L129.025,204.337 L114.649,153.135 L116.762,152.606 L131.698,201.145" id="Fill-16" fill="#FFFFFF" sketch:type="MSShapeGroup"></path>
        </g>
    </g>
</svg>