<?xml version="1.0" encoding="UTF-8" standalone="no"?>
<svg width="207px" height="53px" viewBox="0 0 207 53" version="1.1" xmlns="http://www.w3.org/2000/svg" xmlns:xlink="http://www.w3.org/1999/xlink" xmlns:sketch="http://www.bohemiancoding.com/sketch/ns">
    <!-- Generator: Sketch 3.3.2 (12043) - http://www.bohemiancoding.com/sketch -->
    <title>Imported Layers</title>
    <desc>Created with Sketch.</desc>
    <defs></defs>
    <g id="Page-1" stroke="none" stroke-width="1" fill="none" fill-rule="evenodd" sketch:type="MSPage">
        <g id="Imported-Layers" sketch:type="MSLayerGroup">
            <path d="M206.425,28.557 C206.213,23.072 142.8,12.568 142.8,12.568 L115.071,12.567 L104.031,1.991 C104.031,1.991 89.501,0.464 88.16,0.384 C87.174,0.325 85.661,8.335 84.932,12.566 L31.997,12.564 C30.933,11.1 25.206,3.326 23.095,2.763 C21.201,2.258 20.312,9.732 20.043,12.564 L18.302,12.563 C17.408,13.287 16.736,14.552 16.246,16.149 C12.78,16.387 0.191,17.346 0.17,18.723 C0.148,20.08 11.718,22.471 15.21,23.162 C15.197,23.425 15.188,23.688 15.181,23.954 C10.706,24.597 0.414,26.211 0.481,27.46 C0.549,28.771 11.492,30.303 15.41,30.809 C15.459,31.359 15.515,31.902 15.578,32.432 C10.701,33.268 2.128,34.898 2.213,36.04 C2.308,37.318 12.779,38.585 16.926,39.037 C17.187,39.781 17.464,40.361 17.749,40.709 C18.002,41.018 19.514,41.275 22.001,41.49 C22.192,44.865 22.739,49.74 24.297,49.436 C25.947,49.115 30.018,44.684 32.338,42.021 C46.497,42.476 68.909,42.529 90.387,42.437 C91.115,46.793 92.257,52.678 93.102,52.64 C94.444,52.58 108.997,51.273 108.997,51.273 L118.719,42.237 C136.67,42.068 149.779,41.87 149.779,41.87 C149.779,41.87 206.637,34.041 206.425,28.557" id="Fill-1" fill="#231F1F" sketch:type="MSShapeGroup"></path>
            <path d="M102.783,9.609 C100.819,9.076 85.434,8.594 84.705,8.61 C83.977,8.627 83.459,11.319 83.443,13.4 C83.427,15.48 84.846,21.237 85.363,21.354 C85.881,21.471 118.971,19.786 118.971,19.786 C118.37,18.835 104.747,10.143 102.783,9.609 L102.783,9.609 Z M86.291,10.418 C86.836,10.406 100.486,10.731 101.956,11.13 C103.425,11.529 114.698,18.057 115.148,18.769 C115.148,18.769 87.456,19.88 87.068,19.793 C86.682,19.706 85.745,10.431 86.291,10.418 L86.291,10.418 Z" id="Fill-2" fill="#FFFFFF" sketch:type="MSShapeGroup"></path>
            <path d="M120.986,33.742 C120.986,33.742 90.07,33.018 89.692,34.291 C89.315,35.565 87.843,48.916 88.943,49.254 C90.045,49.594 100.13,49.876 101.704,49.325 C103.278,48.774 119.997,34.516 120.986,33.742 L120.986,33.742 Z M102.211,47.367 C100.881,47.832 91.569,48.213 90.64,47.926 C89.709,47.639 90.87,37.356 91.19,36.28 C91.509,35.204 116.998,35.387 116.998,35.387 C116.162,36.04 103.541,46.9 102.211,47.367 L102.211,47.367 Z" id="Fill-3" fill="#FFFFFF" sketch:type="MSShapeGroup"></path>
            <path d="M31.726,26.557 C31.053,25.725 21.543,22.492 20.926,23.621 C20.309,24.751 21.191,31.881 21.861,32.123 C22.531,32.365 30.568,28.471 31.817,27.756 C31.817,27.756 32.398,27.388 31.726,26.557 L31.726,26.557 Z M22.498,30.738 C21.975,30.56 21.329,25.549 21.828,24.668 C22.327,23.786 30.306,26.295 30.824,26.93 C31.342,27.566 23.023,30.916 22.498,30.738 L22.498,30.738 Z" id="Fill-4" fill="#FFFFFF" sketch:type="MSShapeGroup"></path>
            <path d="M143.758,12.603 C144.396,13.028 144.015,17.221 143.456,17.82 C142.898,18.42 137.258,18.386 136.996,19.142 C136.735,19.898 137.179,24.891 137.513,25.42 C137.847,25.948 146.816,26.493 147.229,27.069 C147.643,27.646 149.803,41.363 149.646,41.658 C149.487,41.955 147.965,42.275 147.548,41.85 C147.131,41.424 146.6,29.192 145.904,28.793 C145.208,28.394 137.386,27.324 136.809,26.801 C136.232,26.278 134.753,18.242 135.448,17.705 C136.144,17.168 141.931,17.355 142.36,16.788 C142.791,16.221 141.139,13.371 141.224,12.726 C141.309,12.081 143.416,12.375 143.758,12.603" id="Fill-5" fill="#FFFFFF" sketch:type="MSShapeGroup"></path>
        </g>
    </g>
</svg>