<?xml version="1.0" encoding="UTF-8" standalone="no"?>
<svg width="247px" height="297px" viewBox="0 0 247 297" version="1.1" xmlns="http://www.w3.org/2000/svg" xmlns:xlink="http://www.w3.org/1999/xlink" xmlns:sketch="http://www.bohemiancoding.com/sketch/ns">
    <!-- Generator: Sketch 3.3.2 (12043) - http://www.bohemiancoding.com/sketch -->
    <title>Imported Layers</title>
    <desc>Created with Sketch.</desc>
    <defs></defs>
    <g id="Page-1" stroke="none" stroke-width="1" fill="none" fill-rule="evenodd" sketch:type="MSPage">
        <g id="Imported-Layers" sketch:type="MSLayerGroup">
            <path d="M243.969,121.704 C244.105,121.622 244.22,121.499 244.302,121.309 C245.05,119.565 222.126,101.376 213.904,104.366 C205.683,107.356 194.968,122.055 193.474,129.532 C192.475,127.987 191.35,126.614 190.144,125.385 C190.558,116.823 189.195,108.559 184.006,103.368 C173.976,93.337 169.685,91.85 165.271,90.014 C170.227,89.87 175.474,88.911 180.767,86.674 C195.574,80.422 192.891,79.169 191.726,78.965 C192.073,78.978 192.696,78.983 193.723,78.952 C201.944,78.702 202.942,80.446 205.184,79.45 C207.427,78.453 208.921,74.217 206.431,73.719 C203.939,73.22 188.739,75.463 186.249,70.979 C183.757,66.493 186.995,67.74 190.483,67.74 C193.972,67.74 215.123,69.457 214.403,59.518 C213.157,42.326 191.979,34.85 182.511,34.601 C182.511,34.601 189.487,25.133 192.976,24.635 C195.093,24.333 187.745,21.737 178.023,21.248 C195.584,13.353 216.596,3.926 223.87,0.217 C213.657,-0.382 166.381,14.201 149.551,21.715 C149.585,21.525 149.612,21.335 149.622,21.147 C149.871,16.663 151.864,6.446 151.864,6.446 C151.864,6.446 140.403,18.905 134.922,19.653 C129.44,20.399 110.754,7.942 110.754,7.942 C110.754,7.942 115.238,15.417 114.49,17.909 C113.744,20.399 106.269,17.161 106.269,17.161 C106.269,17.161 111.002,20.649 110.006,22.393 C109.01,24.137 87.831,24.884 84.343,37.84 C91.319,37.342 95.731,35.226 97.051,41.827 C97.548,44.319 87.831,61.262 85.091,65.248 C82.35,69.235 96.303,62.507 96.053,68.487 C95.804,74.467 81.852,80.446 80.107,85.18 C78.363,89.914 96.552,88.669 97.051,98.385 C97.548,108.104 91.319,110.594 93.064,114.083 C94.808,117.571 110.006,117.571 109.01,122.555 C108.013,127.538 101.784,125.045 100.787,127.788 C99.876,130.291 111.022,137.786 111.816,144.952 C109.985,146.036 107.818,147.11 105.254,148.159 C99.703,145.581 92.357,139.104 90.323,136.756 C87.084,133.02 91.07,142.237 91.07,142.237 L83.596,141.741 C83.596,141.741 83.47,149.844 84.119,155.309 C74.869,158.848 71.306,162.116 63.912,171.389 C50.209,188.581 48.713,207.268 45.973,221.219 C43.232,235.173 38.499,245.14 31.023,246.386 C21.526,247.968 9.846,239.161 8.351,226.952 C6.855,214.743 14.483,192.026 17.569,185.342 C18.001,184.407 17.944,183.641 17.611,183.02 C23.214,178.245 41.769,166.061 41.985,165.411 C42.235,164.663 35.011,163.915 35.011,163.915 C35.011,163.915 49.96,155.194 49.96,153.202 C49.96,151.208 41.737,153.45 41.737,153.45 C41.737,153.45 49.212,145.725 48.713,144.979 C48.216,144.231 39.744,149.961 39.744,149.961 C39.744,149.961 46.721,139.747 46.222,138.252 C45.724,136.756 38.249,146.723 38.249,146.723 C38.249,146.723 43.73,137.504 41.488,138.002 C39.293,138.491 14.161,176.965 12.185,181.366 C9.099,185.073 -0.476,208.772 0.128,220.223 C1.374,243.894 13.582,254.358 28.034,252.862 C42.484,251.368 49.461,241.651 50.956,233.929 C52.33,226.829 54.693,206.27 60.425,204.03 C66.154,201.786 70.391,201.622 71.387,205.442 C72.374,209.227 74.616,214.45 78.99,219.231 C76.108,226.237 74.453,235.845 76.121,240.905 C77.744,245.825 66.001,249.528 63.165,254.981 C61.545,258.095 65.781,262.706 68.023,266.942 C70.266,271.177 62.542,287.87 63.787,288.743 C64.745,289.413 65.702,287.806 66.602,287.024 C66.484,290.124 67.774,295.743 67.774,295.743 C71.76,297.812 80.855,297.122 82.973,295.226 C84.352,293.995 84.462,289.997 84.372,287.351 C85.293,288.653 85.898,289.89 86.835,287.87 C88.454,284.382 86.586,272.796 81.687,268.894 C83.969,266.194 85.713,261.335 85.672,251.95 C93.069,250.499 100.441,244.741 106.601,237.229 C106.749,245.294 107.407,258.356 109.258,259.591 C111.75,261.251 121.551,258.595 122.879,259.757 C122.879,259.757 126.783,275.454 127.945,275.538 C128.941,275.608 129.937,272.581 130.933,271.759 C131.177,274.862 132.156,278.8 132.156,278.8 C136.478,280.868 146.334,280.179 148.63,278.284 C150.343,276.872 150.252,271.821 150.095,269.345 C151.072,270.171 152.992,272.548 153.608,272.548 C154.356,272.548 146.133,253.61 129.939,250.87 C129.939,250.87 131.932,228.696 122.465,219.227 C122.465,219.227 121.605,216.684 119.879,213.137 C121.544,207.977 122.356,203.063 122.044,198.952 C123.26,197.204 124.726,195.618 126.949,194.311 C130.736,192.084 167.961,176.719 179.743,162.608 C184.467,166.436 191.615,170.674 194.306,170.227 C195.716,173.133 174.786,180.774 174.04,182.85 C173.939,183.456 174.631,183.733 175.498,183.905 C173.309,185.081 171.157,186.477 171.157,186.477 C170.537,189.858 173.64,195.69 175.812,196.444 C177.155,196.911 180.271,195.743 182.456,194.784 C182.387,195.002 182.391,195.233 182.511,195.475 C183.175,196.803 210.416,186.555 210.416,164.745 C210.416,162.067 202.216,152.167 190.426,147.292 C192.162,146.856 193.569,146.116 194.471,144.979 C208.672,142.737 215.648,127.788 216.147,121.309 C219.553,124.713 229.586,128.895 232.612,128.09 C232.599,128.276 232.955,128.905 233.113,129.086 C233.545,130.663 234.401,133.415 235,132.936 C235.288,132.704 235.536,132.1 235.736,131.413 C237.679,132.915 239.772,134.282 239.772,134.282 C243.114,133.479 247.19,128.28 246.999,125.987 C246.905,124.874 245.445,123.166 243.969,121.704" id="Fill-1" fill="#231F1F" sketch:type="MSShapeGroup"></path>
            <path d="M130.935,271.614 C131.683,271.364 134.983,274.665 135.981,274.54 C136.977,274.415 138.722,269.495 139.904,268.872 C141.088,268.249 146.071,272.733 147.068,272.298 C148.065,271.862 149.821,269.315 150.095,269.345 C150.369,269.37 148.376,270.554 147.192,270.679 C146.009,270.804 141.96,266.692 140.715,266.692 C139.47,266.692 136.915,272.11 135.919,272.423 C134.922,272.733 130.935,271.614 130.935,271.614" id="Fill-2" fill="#FFFFFF" sketch:type="MSShapeGroup"></path>
            <path d="M66.653,286.958 C66.653,286.958 68.398,284.819 68.935,284.819 C69.477,284.819 72.071,288.368 73.069,288.308 C74.065,288.243 76.992,283.448 77.865,283.511 C78.736,283.571 80.731,287.62 81.166,287.62 C81.603,287.62 83.222,283.821 83.72,283.821 C84.219,283.821 84.343,287.247 84.343,287.247 C84.343,287.247 84.031,285.315 83.658,285.255 C83.284,285.192 82.225,289.304 81.291,289.364 C80.357,289.427 78.613,286.126 77.99,286.126 C77.366,286.126 73.566,289.364 73.131,289.364 C72.694,289.364 69.455,285.565 69.02,285.565 C68.583,285.565 66.653,286.958 66.653,286.958" id="Fill-3" fill="#FFFFFF" sketch:type="MSShapeGroup"></path>
            <path d="M175.493,183.848 C175.493,183.848 180.269,182.559 180.683,183.307 C181.099,184.053 177.777,187.46 178.316,188.207 C178.857,188.954 183.507,188.374 184.214,189.122 C184.918,189.868 182.346,194.809 182.346,194.809 C182.346,194.809 182.719,189.536 182.969,189.909 C183.218,190.284 176.322,190.493 175.784,189.62 C175.244,188.749 178.857,184.428 178.608,184.053 C178.358,183.68 175.493,183.848 175.493,183.848" id="Fill-4" fill="#FFFFFF" sketch:type="MSShapeGroup"></path>
            <path d="M235.721,131.477 C235.721,131.477 235.301,126.043 235.581,125.668 C235.862,125.295 239.039,126.977 239.351,126.665 C239.661,126.354 238.789,122.772 239.475,121.993 C240.159,121.215 243.929,121.838 243.929,121.838 C243.929,121.838 240.689,122.43 240.44,122.709 C240.19,122.991 241.747,127.942 241.125,128.565 C240.502,129.188 236.608,126.477 236.423,126.604 C236.235,126.727 235.721,131.477 235.721,131.477" id="Fill-5" fill="#FFFFFF" sketch:type="MSShapeGroup"></path>
            <path d="M120.471,210.754 C117.232,200.457 96.137,190.657 96.137,190.657 C95.969,190.989 118.894,207.682 119.973,213.331 L120.471,210.754" id="Fill-6" fill="#FFFFFF" sketch:type="MSShapeGroup"></path>
            <path d="M106.644,237.417 L105.896,232.432 C105.896,232.432 87.334,233.18 79.484,220.348 C83.72,224.957 97.424,231.436 107.764,230.688 C107.017,232.557 107.017,237.417 107.017,237.417" id="Fill-7" fill="#FFFFFF" sketch:type="MSShapeGroup"></path>
            <path d="M189.902,125.129 C190.195,125.768 179.631,117.276 170.966,118.567 C167.064,119.149 172.13,116.536 173.292,116.575 C178.44,116.741 187.578,120.063 189.902,125.129" id="Fill-8" fill="#FFFFFF" sketch:type="MSShapeGroup"></path>
            <path d="M162.245,141.657 C161.332,141.573 161.747,142.985 161.747,142.985 C165.817,149.131 190.317,149.381 191.647,146.889 C173.956,147.717 168.225,144.979 162.245,141.657" id="Fill-9" fill="#FFFFFF" sketch:type="MSShapeGroup"></path>
            <path d="M165.319,90.039 C164.634,91.658 147.38,94.212 134.734,79.823 C132.275,77.024 134.237,78.079 135.67,78.204 C155.165,92.841 161.02,89.042 165.319,90.039" id="Fill-10" fill="#FFFFFF" sketch:type="MSShapeGroup"></path>
            <path d="M132.182,32.609 C126.201,28.995 103.155,32.483 102.905,34.477 C106.394,36.221 119.973,48.554 122.09,51.17 C124.706,47.432 110.505,35.598 110.256,34.353 C110.006,33.106 126.949,32.234 132.182,32.609" id="Fill-11" fill="#FFFFFF" sketch:type="MSShapeGroup"></path>
        </g>
    </g>
</svg>